<svg width="2274" height="522" viewBox="0 0 2274 522" fill="none" xmlns="http://www.w3.org/2000/svg">
<path d="M168.31 148.279C169.51 154.067 170.286 159.502 170.286 165.008V175.455L234.804 146.726L234.381 143.973C230.922 116.02 216.522 93.0787 196.686 78.3258C177.628 53.0552 147.345 38.3022 113.11 38.3022C40.8276 38.3022 0.0275879 98.0905 0.0275879 167.338C0.0275879 210.82 13.2276 257.055 49.0158 284.655C69.2041 310.702 100.333 326.302 133.369 326.302C184.263 326.302 224.639 292.067 236.71 243.079L237.486 239.973L215.322 230.302C216.098 227.973 216.522 225.996 217.298 223.667L218.075 220.561L149.251 189.855V195.714C148.898 212.373 138.028 245.408 116.992 245.408C115.439 245.408 113.886 245.408 112.333 245.055C106.898 232.632 105.345 214.702 105.345 201.502C105.345 177.785 111.204 141.29 127.863 125.69C131.816 122.232 136.828 119.479 141.133 119.479C142.686 119.479 144.239 119.479 145.792 119.902C149.251 128.02 150.804 137.408 150.804 145.526V156.043L168.31 148.279ZM213.416 222.89C200.569 275.338 157.439 302.938 113.886 302.938C62.2158 302.938 8.99229 263.69 4.33347 179.761L3.90994 167.338C3.90994 81.4316 59.4629 42.1846 113.11 42.1846C159.345 42.1846 204.098 71.3375 211.086 124.914L154.686 150.185V145.526C154.686 114.82 138.028 96.1846 122.428 96.1846H121.651C96.0276 97.7375 82.0511 141.643 82.0511 182.09C82.0511 217.032 92.4982 249.29 115.439 249.29H116.992C137.251 248.161 152.781 222.467 153.133 195.714L213.416 222.89ZM357.628 313.808L427.157 299.832L429.486 121.455L410.075 119.126V102.043L326.922 92.6552L327.698 105.149C319.863 102.043 310.969 100.067 302.428 100.067C251.11 100.067 228.945 154.067 228.945 195.714C228.945 226.349 241.016 263.338 267.416 281.196C279.486 298.702 297.345 310.702 321.839 310.702C334.263 310.702 346.333 307.243 356.851 301.032L357.628 313.808ZM331.157 96.9611L406.192 105.502L403.863 277.314L341.675 289.738L340.898 274.561C329.604 282.749 316.404 287.408 302.428 287.408C261.204 287.408 232.828 246.608 232.828 195.714C232.828 145.173 261.204 103.949 302.428 103.949C312.875 103.949 323.039 106.702 331.933 111.714L331.157 96.9611ZM336.592 198.396C336.592 196.067 336.592 194.09 336.239 191.761C336.239 170.796 329.251 155.62 314.851 155.62C301.228 155.62 293.886 178.208 293.886 199.949C293.886 220.561 300.451 240.749 313.651 240.749C330.381 240.749 336.592 221.69 336.592 198.396ZM331.157 179.338C332.71 185.973 332.71 192.961 332.71 198.396C332.71 209.267 331.157 231.432 318.733 236.09C317.533 229.879 317.181 223.243 317.181 219.361C317.181 209.267 320.286 183.643 331.157 179.338ZM531.345 300.608C540.663 305.267 550.757 307.596 561.275 307.596C612.592 307.596 634.686 253.596 634.686 212.02C634.686 181.667 622.686 144.396 596.216 126.89C584.216 109.808 566.286 97.314 541.792 97.314C530.922 97.314 520.051 100.067 510.381 105.149V96.5375L427.581 99.6434L436.475 368.655L455.181 365.126L455.957 388.067L532.122 372.89L531.345 300.608ZM541.792 101.267C583.016 101.267 611.392 142.067 611.392 192.538C611.392 243.502 583.016 284.302 541.792 284.302C529.792 284.302 518.145 280.773 507.981 274.561L508.757 350.373L440.357 363.996L431.463 103.596L506.428 100.49V111.714C516.945 105.149 529.016 101.267 541.792 101.267ZM529.016 152.514C512.286 152.514 507.628 171.573 507.628 195.29C507.628 218.585 513.486 238.067 530.145 238.067C543.769 238.067 550.404 217.808 550.404 197.267C550.404 175.102 542.992 152.514 529.016 152.514ZM546.522 197.267C546.522 206.938 544.192 230.655 532.475 233.761C531.345 227.196 530.922 220.138 530.922 214.702C530.922 204.255 531.345 180.538 544.192 176.655C545.745 184.42 546.522 192.185 546.522 197.267ZM739.298 398.585C783.981 398.585 812.71 370.561 815.463 327.432L828.663 113.267L808.051 114.043L809.251 93.8552L740.428 96.1846L740.075 99.6434C738.522 120.255 736.969 140.867 735.416 161.479C734.216 175.879 728.781 196.49 722.145 209.69C721.369 199.173 721.369 189.079 721.369 185.973C721.369 169.243 722.569 141.643 727.228 126.467L728.357 121.455L704.71 121.032C705.486 115.596 706.616 110.938 707.816 107.055L708.945 102.043L635.463 100.067L634.686 103.173C629.675 126.467 626.922 150.608 626.922 174.679C626.922 208.49 632.357 261.361 666.592 282.749C678.239 300.255 696.522 311.479 717.486 311.479C712.828 314.232 707.039 315.785 702.381 315.785C694.192 315.785 686.781 312.255 681.345 306.043L677.886 301.808L646.757 350.726L649.51 353.126C655.722 357.785 661.933 362.02 668.922 365.902L666.169 370.208L668.922 372.538C688.757 388.067 713.604 398.585 739.298 398.585ZM730.686 274.208C722.145 282.749 710.922 288.185 697.298 288.185H695.745C644.428 284.302 630.804 227.549 630.804 174.679C630.804 147.502 634.686 121.032 638.639 103.949L703.933 105.926C700.404 117.149 698.075 142.067 698.075 166.561C698.075 196.067 701.604 224.443 711.698 224.443C725.675 224.443 735.769 188.655 739.298 161.832L743.957 100.067L804.945 97.7375L792.098 307.596C791.322 349.949 758.71 375.22 719.816 375.22C697.651 375.22 673.581 367.102 651.839 349.949L678.239 308.373C685.228 316.561 694.192 319.667 702.381 319.667C715.157 319.667 727.228 311.902 728.781 302.938L730.686 274.208Z" fill="#F4400D"/>
<g clip-path="url(#clip0_1_72)">
<g clip-path="url(#clip1_1_72)">
<path d="M1271.29 87.3142C1266.36 74.4178 1260.08 65.3024 1252.08 59.4563C1244.14 53.645 1234.88 51.1728 1225.29 48.9565C1173.03 36.8672 1119.59 30.908 1066.01 31.0221C1062.26 17.4666 1052.82 6.48578 1040.72 2.03027C1026.67 -3.13091 1010.18 1.87576 1002.14 13.3343C989.678 10.4686 976.923 12.7024 967.666 19.9235C962.2 24.1816 958.704 29.702 957.823 35.4551C955.981 47.4615 965.275 57.2225 970.266 62.4637L975.125 67.5653C974.447 68.0452 973.829 68.6916 973.346 69.6103C962.244 90.7019 956.3 112.774 953.147 136.275C952.471 141.311 951.848 146.353 951.26 151.4C950.992 153.696 950.601 156.012 950.47 158.319C950.41 159.362 950.506 159.606 950.581 159.637C950.487 159.728 950.287 160 949.856 160.809C947.584 165.077 947.903 164.112 943.988 166.681C938.889 170.025 933.928 173.572 929.088 177.28C894.721 203.613 866.312 239.679 855.033 282.007C844.602 321.157 850.165 363.465 873.778 396.789C888.258 417.224 909.159 428.19 933.824 431.551C943.99 432.937 954.246 433.243 964.493 432.829C977.201 432.316 991.898 431.999 1004.14 428.389C1017.31 424.506 1015.5 404.814 1014 394.275C1013.7 392.182 1011.63 390.765 1009.84 390.115C1007.8 389.378 1005.73 388.519 1003.67 387.597C1007 387.858 1010.33 388.118 1013.66 388.279C1021.82 388.673 1030.03 388.816 1038.2 388.38C1040.3 394.915 1042.6 401.39 1045.23 407.747C1046.27 410.26 1048.02 414.471 1051.99 417.031C1055.06 419.02 1058.44 419.369 1061.36 419.544C1063.71 419.683 1065.95 419.753 1068.09 419.753C1079.86 419.753 1088.83 417.752 1100.56 415.135L1102.91 414.611C1104.47 414.262 1105.82 413.308 1106.66 411.964C1107.51 410.615 1107.78 408.986 1107.42 407.433C1107.37 407.202 1107.33 406.972 1107.27 406.741C1107.29 406.742 1107.3 406.752 1107.32 406.752C1108.13 406.775 1108.94 406.787 1109.75 406.787C1114.62 406.787 1119.5 406.333 1124.29 405.438C1127.42 404.85 1129.59 403.349 1130.71 400.987C1131.67 398.992 1131.48 397.102 1131.39 396.299L1129.66 379.447C1129.33 376.294 1129.03 373.316 1129.36 370.576C1129.8 366.847 1131.47 363.078 1133.24 359.087L1133.57 358.325C1146.94 328.082 1155.96 296.185 1160.52 263.453C1175.06 266.569 1189.83 268.564 1204.55 269.214C1205.84 269.272 1207.14 269.318 1208.45 269.318C1212.63 269.318 1216.91 268.859 1221.03 266.887C1225.79 264.618 1229.14 260.866 1232.16 257.213C1266.59 215.668 1294.95 149.219 1271.29 87.3142ZM1036.6 13.2107C1044.1 15.9698 1050.35 22.747 1053.55 31.1268C1046.91 31.2595 1040.26 31.4268 1033.62 31.7496C1033.09 31.7762 1032.62 31.9714 1032.13 32.1274C1026.52 25.8842 1020.43 21.0724 1013.95 17.6927C1019.48 12.377 1028.76 10.3236 1036.6 13.2107ZM1222.98 249.616C1220.72 252.35 1218.47 254.909 1215.89 256.137C1212.96 257.539 1208.95 257.475 1205.08 257.312C1172.1 255.852 1138.83 247.737 1108.87 233.834C1105.88 232.444 1102.34 233.747 1100.95 236.731C1099.57 239.715 1100.87 243.258 1103.85 244.642C1118.25 251.32 1133.39 256.656 1148.88 260.696C1144.52 292.723 1135.75 323.934 1122.68 353.509L1122.35 354.259C1120.39 358.663 1118.18 363.659 1117.52 369.168C1117.04 373.223 1117.45 377.178 1117.81 380.668L1119.2 394.205C1115.39 394.752 1111.52 394.978 1107.69 394.839C1106.69 394.809 1105.8 395.04 1104.99 395.397C1101.66 376.431 1100.95 357.685 1102.98 339.524C1103.35 336.255 1101 333.306 1097.73 332.94C1094.46 332.585 1091.51 334.929 1091.14 338.198C1088.74 359.669 1089.88 381.873 1094.52 404.274C1082.98 406.822 1074.53 408.387 1062.07 407.654C1061.05 407.59 1059.15 407.479 1058.45 407.026C1057.6 406.479 1056.71 404.338 1056.24 403.186C1047.41 381.896 1041.71 359.483 1039.29 336.564C1038.94 333.289 1036.01 330.921 1032.74 331.27C1029.47 331.613 1027.09 334.545 1027.44 337.82C1028.83 350.935 1031.33 363.868 1034.74 376.564C1027.98 376.78 1021.2 376.714 1014.45 376.403C1009.93 376.195 1005.41 375.902 1000.89 375.493C996.531 375.098 993.472 374.756 989.688 374.106C988.862 373.964 988.035 373.968 987.241 374.089C984.82 369.549 983.141 364.249 981.156 360.063C973.089 343.052 962.478 322.849 944.238 315.046C937.266 312.063 931.189 322.323 938.225 325.333C957.042 333.383 966.378 356.051 974.296 373.508C977.68 380.969 980.567 387.053 987.447 391.963C992.107 395.289 997.379 397.91 1002.74 400.076C1002.75 400.18 1002.76 400.296 1002.77 400.369C1002.97 403.133 1003.08 405.929 1002.92 408.698C1002.8 410.8 1002.87 414.748 1001.3 416.421C999.224 418.64 991.515 418.434 988.508 418.823C970.227 421.191 951.166 422.447 932.876 419.455C912.231 416.078 894.896 406.637 883.004 389.248C861.119 357.244 856.746 317.738 867.744 280.843C879.342 241.941 906.475 208.736 938.756 184.807C945.425 179.864 955.242 175.948 959.24 168.572C962.99 161.653 962.872 153.748 963.813 146.027C966.804 121.473 971.836 98.3121 983.351 76.2025L990.554 83.7658C991.724 84.9932 993.294 85.6156 994.868 85.6156C996.346 85.6156 997.823 85.0688 998.975 83.9752C1001.36 81.7065 1001.45 77.9313 999.182 75.5521L978.893 54.25C973.57 48.6598 968.759 42.7322 969.597 37.2584C970.164 33.5645 973.221 30.6967 974.993 29.3181C983.158 22.9542 996.11 22.262 1007.22 27.5846C1016.78 32.1743 1025.49 40.8882 1033.09 53.4938C1034.79 56.3092 1038.45 57.2167 1041.27 55.5181C1044.09 53.8195 1044.99 50.1548 1043.29 47.3393C1042.48 45.9912 1041.64 44.7199 1040.8 43.4463C1101.9 41.0791 1163.02 46.7773 1222.61 60.5673C1230.94 62.4928 1238.93 64.5927 1245.05 69.0661C1251.13 73.5219 1256.07 80.8805 1260.16 91.5723C1263.65 100.7 1265.77 109.953 1266.96 119.215C1261.79 118.311 1256.62 117.407 1251.45 116.503C1251.77 110.629 1245.45 107.268 1240.32 108.587C1234.97 109.961 1233.46 115.573 1232.93 120.327C1232.66 122.69 1234.95 125.66 1237.3 126.07C1247.13 127.789 1256.96 129.508 1266.79 131.227C1267.16 131.293 1267.55 131.241 1267.93 131.249C1269.35 175.868 1247.87 219.584 1222.98 249.616ZM1123.28 83.0328C1123.28 86.3253 1120.62 88.9895 1117.33 88.9895H1076.34C1073.05 88.9895 1070.38 86.3253 1070.38 83.0328C1070.38 79.7404 1073.05 77.0762 1076.34 77.0762H1117.33C1120.62 77.0762 1123.28 79.7404 1123.28 83.0328Z" fill="#F4400D"/>
</g>
</g>
<path d="M1468.63 148.279C1469.83 154.067 1470.61 159.502 1470.61 165.008V175.455L1535.13 146.726L1534.7 143.973C1531.24 116.02 1516.84 93.0788 1497.01 78.3258C1477.95 53.0552 1447.67 38.3023 1413.43 38.3023C1341.15 38.3023 1300.35 98.0905 1300.35 167.338C1300.35 210.82 1313.55 257.055 1349.34 284.655C1369.53 310.702 1400.65 326.302 1433.69 326.302C1484.58 326.302 1524.96 292.067 1537.03 243.079L1537.81 239.973L1515.64 230.302C1516.42 227.973 1516.84 225.996 1517.62 223.667L1518.4 220.561L1449.57 189.855V195.714C1449.22 212.373 1438.35 245.408 1417.31 245.408C1415.76 245.408 1414.21 245.408 1412.65 245.055C1407.22 232.632 1405.67 214.702 1405.67 201.502C1405.67 177.785 1411.53 141.291 1428.18 125.691C1432.14 122.232 1437.15 119.479 1441.45 119.479C1443.01 119.479 1444.56 119.479 1446.11 119.902C1449.57 128.02 1451.13 137.408 1451.13 145.526V156.043L1468.63 148.279ZM1513.74 222.891C1500.89 275.338 1457.76 302.938 1414.21 302.938C1362.54 302.938 1309.31 263.691 1304.65 179.761L1304.23 167.338C1304.23 81.4317 1359.78 42.1847 1413.43 42.1847C1459.67 42.1847 1504.42 71.3376 1511.41 124.914L1455.01 150.185V145.526C1455.01 114.82 1438.35 96.1847 1422.75 96.1847H1421.97C1396.35 97.7376 1382.37 141.643 1382.37 182.091C1382.37 217.032 1392.82 249.291 1415.76 249.291H1417.31C1437.57 248.161 1453.1 222.467 1453.45 195.714L1513.74 222.891ZM1639.24 312.679C1697.97 312.679 1734.11 265.667 1734.11 210.467C1734.11 175.879 1719.71 145.949 1695.22 127.667C1678.91 105.502 1652.87 91.1023 1619.83 91.1023C1564.63 91.1023 1529.27 141.291 1529.27 192.185C1529.27 226.349 1542.89 260.232 1568.94 278.867C1583.69 299.055 1605.85 312.679 1635.78 312.679H1639.24ZM1533.15 192.185C1534.35 138.538 1569.71 94.9847 1619.83 94.9847C1681.24 95.7611 1710.75 143.196 1710.75 190.985C1710.75 239.973 1679.69 289.314 1619.83 289.314H1616.3C1566.61 289.314 1533.15 246.961 1533.15 194.091V192.185ZM1626.04 149.832C1608.96 149.832 1599.64 174.679 1599.64 198.396C1599.64 219.785 1606.98 239.973 1622.94 239.973C1642.35 239.973 1652.51 215.902 1652.51 192.538C1652.51 170.796 1643.9 149.832 1626.04 149.832ZM1645.88 173.126C1647.78 179.761 1648.56 186.749 1648.56 192.538C1648.56 210.043 1641.57 234.185 1625.27 236.091C1623.71 229.526 1622.94 222.891 1622.94 217.808C1622.94 204.608 1628.02 173.126 1645.45 173.126H1645.88ZM1827.01 101.62C1818.47 98.0905 1809.08 95.7611 1799.76 95.7611C1748.51 95.7611 1726.35 149.832 1726.35 191.408C1726.35 221.691 1738.35 259.032 1765.17 276.891C1777.24 294.043 1794.75 306.467 1819.24 306.467C1831.67 306.467 1843.74 302.585 1854.18 296.373L1854.96 309.149L1921.45 295.173L1931.13 54.1847H1910.94L1911.71 34.7729L1824.25 34.3494L1827.01 101.62ZM1907.83 38.6553L1898.09 272.655L1839.01 285.079L1838.23 269.902C1827.01 278.091 1813.81 283.102 1799.76 283.102C1758.61 283.102 1730.23 241.949 1730.23 191.408C1730.23 140.514 1758.61 99.6435 1799.76 99.6435C1811.05 99.6435 1821.57 102.82 1831.24 108.255L1828.14 38.3023L1907.83 38.6553ZM1812.61 150.961C1798.63 150.961 1791.22 173.902 1791.22 195.714C1791.22 216.255 1797.85 236.514 1811.05 236.514C1827.78 236.514 1834 217.455 1834 193.738C1834 170.02 1829.34 150.961 1812.61 150.961ZM1828.91 175.102C1830.11 181.314 1830.11 188.302 1830.11 193.738C1830.11 204.608 1828.56 227.196 1816.14 231.855C1814.94 225.573 1814.58 219.008 1814.58 215.126C1814.58 205.032 1817.69 179.338 1828.91 175.102ZM2029.45 313.455C2066.8 313.455 2100.61 294.396 2113.45 257.479L2114.23 253.949L2091.64 244.279C2092.42 242.302 2093.2 239.973 2093.97 238.067L2094.75 234.538L2068 222.891L2120.8 222.114L2121.22 218.585C2121.57 213.573 2122 208.491 2122 203.479C2122 168.891 2109.15 142.843 2086.98 127.243C2071.1 104.373 2044.28 91.8788 2009.27 91.8788C1954.07 91.8788 1923.36 138.538 1923.36 189.079C1923.36 222.467 1938.18 259.808 1965.71 279.643C1980.11 299.832 2001.93 313.455 2029.45 313.455ZM2021.34 240.396C2035.31 239.62 2041.53 231.432 2041.53 222.114C2041.53 219.785 2041.17 217.455 2040.4 215.126L2090.09 236.867C2079.22 269.126 2050.49 288.538 2013.57 290.161H2010.04C1966.14 290.161 1930.77 249.714 1927.67 197.62L1927.24 189.079C1927.24 139.314 1957.6 98.867 2001.5 96.1847L2009.27 95.7611C2070.68 95.7611 2098.7 134.302 2098.7 183.996C2098.7 189.079 2098.28 193.738 2097.93 198.82L1997.62 200.373V203.832C1997.62 224.796 2005.03 240.396 2020.14 240.396H2021.34ZM2043.5 175.879C2040.75 158.373 2032.63 149.832 2024.02 149.832L2019.78 150.185C2008.49 152.161 2001.15 166.138 1998.75 181.667L2043.5 175.879ZM2037.64 223.243C2036.87 231.079 2030.65 236.091 2022.11 236.514C2021.34 232.208 2020.91 227.973 2020.91 223.667L2037.64 223.243ZM2199.36 321.22C2234.73 321.22 2272.77 296.726 2272.77 257.055C2272.77 235.738 2258.44 219.785 2242.84 207.714C2238.18 200.726 2231.97 194.938 2225.41 189.432L2273.97 182.091L2273.55 178.561C2272.42 152.938 2261.9 131.126 2242.84 119.902C2232.4 102.82 2214.89 91.8788 2189.62 91.8788C2153.48 91.8788 2115.01 114.043 2115.01 154.491C2115.01 178.985 2129.41 194.514 2144.51 206.161C2149.95 213.926 2157.36 220.561 2164.77 225.996L2105.27 235.738L2106.04 239.62C2110.35 261.008 2121.57 278.443 2137.95 289.314C2151.5 309.149 2173.31 321.22 2199.36 321.22ZM2249.48 237.643C2249.48 274.561 2213.69 297.926 2179.88 297.926C2147.27 297.926 2117.34 276.891 2109.93 238.843L2163.22 230.302V230.655C2163.22 242.726 2172.11 248.161 2179.1 248.161C2183.41 248.161 2187.29 245.832 2187.29 241.173L2186.87 239.196C2181.43 213.149 2125.88 208.138 2119.24 160.702L2118.89 154.491C2118.89 116.373 2155.81 95.7611 2189.62 95.7611C2221.1 95.7611 2247.93 115.243 2250.25 159.502L2196.61 167.691V166.914C2196.61 152.938 2189.62 148.279 2183.41 148.279C2178.75 148.279 2174.44 150.961 2174.44 154.843C2174.87 168.467 2238.96 189.855 2247.93 225.996C2249.05 229.879 2249.48 233.761 2249.48 237.643ZM2167.1 227.973C2168.23 228.749 2169.43 229.526 2170.21 230.302C2174.87 233.408 2179.1 236.091 2182.98 238.843C2183.41 239.62 2183.41 240.396 2183.41 241.173C2183.41 242.726 2182.21 244.279 2179.1 244.279C2171.76 244.279 2167.1 238.067 2167.1 230.302V227.973ZM2200.14 171.996C2200.91 171.573 2201.69 171.573 2202.82 171.573C2207.48 171.573 2209.81 174.679 2211.36 179.338C2207.48 176.655 2203.6 174.326 2200.14 171.996Z" fill="#2F2A76"/>
<path d="M658.8 494.823H35.3218V501.882H658.8V494.823Z" fill="#2F2A76"/>
<path d="M2238.68 494.823H1615.2V501.882H2238.68V494.823Z" fill="#2F2A76"/>
<path d="M691.559 502.521H705.112L702.994 495.674C702.147 493.132 701.37 490.615 700.665 488.121C699.912 485.627 699.182 483.085 698.476 480.497H698.194C697.488 483.085 696.782 485.627 696.076 488.121C695.323 490.615 694.547 493.132 693.747 495.674L691.559 502.521ZM710.829 520.874L706.594 507.109H690.147L685.841 520.874H679.982L695.229 475.838H701.653L716.9 520.874H710.829ZM734.617 498.356C734.617 494.732 735.112 491.485 736.1 488.615C737.088 485.697 738.476 483.25 740.265 481.274C742.053 479.25 744.17 477.697 746.617 476.615C749.065 475.532 751.747 474.991 754.665 474.991C757.394 474.991 759.794 475.556 761.865 476.685C763.935 477.815 765.629 479.109 766.947 480.568L763.7 484.168C762.523 482.897 761.206 481.885 759.747 481.132C758.335 480.379 756.665 480.003 754.735 480.003C752.57 480.003 750.617 480.427 748.876 481.274C747.135 482.121 745.653 483.344 744.429 484.944C743.159 486.497 742.194 488.403 741.535 490.662C740.829 492.921 740.476 495.438 740.476 498.215C740.476 501.038 740.806 503.579 741.465 505.838C742.123 508.144 743.065 510.097 744.288 511.697C745.465 513.297 746.923 514.521 748.665 515.368C750.359 516.262 752.288 516.709 754.453 516.709C756.617 516.709 758.523 516.262 760.17 515.368C761.817 514.521 763.37 513.297 764.829 511.697L768.006 515.156C766.265 517.227 764.265 518.827 762.006 519.956C759.747 521.132 757.182 521.721 754.312 521.721C751.488 521.721 748.853 521.179 746.406 520.097C744.006 519.062 741.935 517.556 740.194 515.579C738.406 513.556 737.017 511.085 736.029 508.168C735.088 505.297 734.617 502.027 734.617 498.356ZM782.053 502.521H795.606L793.488 495.674C792.641 493.132 791.841 490.615 791.088 488.121C790.382 485.627 789.653 483.085 788.9 480.497H788.617C787.959 483.085 787.253 485.627 786.5 488.121C785.794 490.615 785.017 493.132 784.17 495.674L782.053 502.521ZM801.253 520.874L797.017 507.109H780.641L776.265 520.874H770.476L785.723 475.838H792.147L807.394 520.874H801.253ZM813.817 520.874V475.838H827.582C830.076 475.838 832.359 476.05 834.429 476.474C836.453 476.944 838.194 477.697 839.653 478.732C841.112 479.768 842.241 481.132 843.041 482.827C843.841 484.521 844.241 486.591 844.241 489.038C844.241 491.438 843.841 493.509 843.041 495.25C842.241 496.991 841.088 498.427 839.582 499.556C838.123 500.732 836.382 501.603 834.359 502.168C832.335 502.732 830.076 503.015 827.582 503.015H819.465V520.874H813.817ZM819.465 498.356H826.876C830.829 498.356 833.77 497.603 835.7 496.097C837.582 494.638 838.523 492.285 838.523 489.038C838.523 485.791 837.559 483.556 835.629 482.332C833.7 481.062 830.782 480.427 826.876 480.427H819.465V498.356ZM859.982 520.874V503.438L846.429 475.838H852.5L858.359 488.544C859.112 490.191 859.817 491.815 860.476 493.415C861.182 495.015 861.912 496.662 862.665 498.356H862.947C863.747 496.662 864.523 495.015 865.276 493.415C866.076 491.815 866.829 490.191 867.535 488.544L873.253 475.838H879.253L865.7 503.438V520.874H859.982ZM899.229 520.874V475.838H925.206V480.638H904.947V495.885H922.1V500.685H904.947V520.874H899.229ZM949.135 521.721C946.265 521.721 943.653 521.156 941.3 520.027C938.947 518.944 936.923 517.391 935.229 515.368C933.535 513.297 932.217 510.827 931.276 507.956C930.335 505.038 929.865 501.768 929.865 498.144C929.865 494.521 930.335 491.274 931.276 488.403C932.217 485.532 933.535 483.109 935.229 481.132C936.923 479.156 938.947 477.627 941.3 476.544C943.653 475.509 946.265 474.991 949.135 474.991C951.959 474.991 954.547 475.532 956.9 476.615C959.253 477.697 961.3 479.227 963.041 481.203C964.735 483.179 966.053 485.603 966.994 488.474C967.935 491.344 968.406 494.568 968.406 498.144C968.406 501.768 967.935 505.038 966.994 507.956C966.053 510.827 964.735 513.297 963.041 515.368C961.3 517.391 959.253 518.944 956.9 520.027C954.547 521.156 951.959 521.721 949.135 521.721ZM949.135 516.709C951.112 516.709 952.923 516.262 954.57 515.368C956.217 514.521 957.606 513.274 958.735 511.627C959.912 510.027 960.829 508.074 961.488 505.768C962.1 503.509 962.406 500.968 962.406 498.144C962.406 495.368 962.1 492.85 961.488 490.591C960.829 488.332 959.912 486.427 958.735 484.874C957.606 483.321 956.217 482.121 954.57 481.274C952.923 480.427 951.112 480.003 949.135 480.003C947.112 480.003 945.276 480.427 943.629 481.274C942.029 482.121 940.641 483.321 939.465 484.874C938.288 486.427 937.37 488.332 936.712 490.591C936.1 492.85 935.794 495.368 935.794 498.144C935.794 500.968 936.1 503.509 936.712 505.768C937.37 508.074 938.288 510.027 939.465 511.627C940.641 513.274 942.029 514.521 943.629 515.368C945.276 516.262 947.112 516.709 949.135 516.709ZM983.794 480.427V497.156H991.347C994.876 497.156 997.582 496.45 999.465 495.038C1001.35 493.579 1002.29 491.391 1002.29 488.474C1002.29 485.462 1001.35 483.368 999.465 482.191C997.582 481.015 994.876 480.427 991.347 480.427H983.794ZM1009.28 520.874H1002.85L991.982 501.815H983.794V520.874H978.076V475.838H992.194C994.453 475.838 996.57 476.05 998.547 476.474C1000.48 476.897 1002.15 477.627 1003.56 478.662C1004.97 479.65 1006.05 480.944 1006.81 482.544C1007.61 484.144 1008.01 486.121 1008.01 488.474C1008.01 492.003 1007.09 494.803 1005.25 496.874C1003.42 498.991 1000.97 500.45 997.912 501.25L1009.28 520.874ZM1039.14 520.874V503.438L1025.65 475.838H1031.72L1037.58 488.544C1038.34 490.191 1039.04 491.815 1039.7 493.415C1040.41 495.015 1041.14 496.662 1041.89 498.356H1042.17C1042.97 496.662 1043.75 495.015 1044.5 493.415C1045.3 491.815 1046.03 490.191 1046.69 488.544L1052.48 475.838H1058.48L1044.92 503.438V520.874H1039.14ZM1080.22 521.721C1077.39 521.721 1074.81 521.156 1072.45 520.027C1070.1 518.944 1068.08 517.391 1066.38 515.368C1064.69 513.297 1063.37 510.827 1062.43 507.956C1061.49 505.038 1061.02 501.768 1061.02 498.144C1061.02 494.521 1061.49 491.274 1062.43 488.403C1063.37 485.532 1064.69 483.109 1066.38 481.132C1068.08 479.156 1070.1 477.627 1072.45 476.544C1074.81 475.509 1077.39 474.991 1080.22 474.991C1083.09 474.991 1085.7 475.532 1088.05 476.615C1090.41 477.697 1092.43 479.227 1094.12 481.203C1095.86 483.179 1097.21 485.603 1098.15 488.474C1099.09 491.344 1099.56 494.568 1099.56 498.144C1099.56 501.768 1099.09 505.038 1098.15 507.956C1097.21 510.827 1095.86 513.297 1094.12 515.368C1092.43 517.391 1090.41 518.944 1088.05 520.027C1085.7 521.156 1083.09 521.721 1080.22 521.721ZM1080.22 516.709C1082.24 516.709 1084.08 516.262 1085.72 515.368C1087.32 514.521 1088.71 513.274 1089.89 511.627C1091.06 510.027 1091.96 508.074 1092.57 505.768C1093.23 503.509 1093.56 500.968 1093.56 498.144C1093.56 495.368 1093.23 492.85 1092.57 490.591C1091.96 488.332 1091.06 486.427 1089.89 484.874C1088.71 483.321 1087.32 482.121 1085.72 481.274C1084.08 480.427 1082.24 480.003 1080.22 480.003C1078.24 480.003 1076.43 480.427 1074.78 481.274C1073.14 482.121 1071.75 483.321 1070.62 484.874C1069.44 486.427 1068.52 488.332 1067.86 490.591C1067.25 492.85 1066.95 495.368 1066.95 498.144C1066.95 500.968 1067.25 503.509 1067.86 505.768C1068.52 508.074 1069.44 510.027 1070.62 511.627C1071.75 513.274 1073.14 514.521 1074.78 515.368C1076.43 516.262 1078.24 516.709 1080.22 516.709ZM1109.02 502.238V475.838H1114.74V502.379C1114.74 505.109 1115.02 507.391 1115.58 509.227C1116.1 511.015 1116.83 512.474 1117.77 513.603C1118.71 514.685 1119.82 515.462 1121.09 515.932C1122.41 516.45 1123.79 516.709 1125.25 516.709C1126.76 516.709 1128.15 516.45 1129.42 515.932C1130.69 515.462 1131.82 514.685 1132.81 513.603C1133.75 512.474 1134.5 511.015 1135.06 509.227C1135.63 507.391 1135.91 505.109 1135.91 502.379V475.838H1141.35V502.238C1141.35 505.862 1140.95 508.921 1140.15 511.415C1139.3 513.862 1138.17 515.862 1136.76 517.415C1135.3 518.921 1133.58 520.027 1131.61 520.732C1129.63 521.391 1127.51 521.721 1125.25 521.721C1122.95 521.721 1120.81 521.391 1118.83 520.732C1116.81 520.027 1115.09 518.921 1113.68 517.415C1112.22 515.862 1111.09 513.862 1110.29 511.415C1109.44 508.921 1109.02 505.862 1109.02 502.238ZM1159.21 480.427V497.156H1166.76C1170.29 497.156 1172.99 496.45 1174.88 495.038C1176.76 493.579 1177.7 491.391 1177.7 488.474C1177.7 485.462 1176.76 483.368 1174.88 482.191C1172.99 481.015 1170.29 480.427 1166.76 480.427H1159.21ZM1184.69 520.874H1178.26L1167.39 501.815H1159.21V520.874H1153.56V475.838H1167.61C1169.91 475.838 1172.03 476.05 1173.96 476.474C1175.94 476.897 1177.61 477.627 1178.97 478.662C1180.38 479.65 1181.46 480.944 1182.22 482.544C1183.02 484.144 1183.42 486.121 1183.42 488.474C1183.42 492.003 1182.5 494.803 1180.66 496.874C1178.83 498.991 1176.38 500.45 1173.32 501.25L1184.69 520.874ZM1204.03 515.015L1207.49 511.062C1209.09 512.756 1210.97 514.121 1213.14 515.156C1215.3 516.191 1217.56 516.709 1219.91 516.709C1222.88 516.709 1225.18 516.027 1226.83 514.662C1228.48 513.297 1229.3 511.532 1229.3 509.368C1229.3 508.191 1229.11 507.203 1228.74 506.403C1228.31 505.603 1227.77 504.921 1227.11 504.356C1226.45 503.791 1225.68 503.274 1224.78 502.803C1223.84 502.332 1222.85 501.862 1221.82 501.391L1215.32 498.568C1214.29 498.097 1213.23 497.532 1212.15 496.874C1211.02 496.262 1210.03 495.485 1209.18 494.544C1208.29 493.65 1207.58 492.568 1207.06 491.297C1206.5 490.027 1206.22 488.568 1206.22 486.921C1206.22 485.227 1206.57 483.65 1207.28 482.191C1207.98 480.732 1208.97 479.462 1210.24 478.379C1211.51 477.297 1212.99 476.474 1214.69 475.909C1216.43 475.297 1218.34 474.991 1220.41 474.991C1223.09 474.991 1225.58 475.509 1227.89 476.544C1230.15 477.579 1232.08 478.921 1233.68 480.568L1230.64 484.238C1229.23 482.921 1227.7 481.885 1226.05 481.132C1224.36 480.379 1222.48 480.003 1220.41 480.003C1217.86 480.003 1215.82 480.591 1214.26 481.768C1212.76 482.944 1212.01 484.544 1212.01 486.568C1212.01 487.697 1212.22 488.638 1212.64 489.391C1213.06 490.144 1213.65 490.803 1214.41 491.368C1215.11 491.932 1215.91 492.427 1216.81 492.85C1217.65 493.321 1218.55 493.721 1219.49 494.05L1225.84 496.803C1227.16 497.368 1228.38 498.003 1229.51 498.709C1230.64 499.415 1231.63 500.238 1232.48 501.179C1233.28 502.121 1233.94 503.227 1234.45 504.497C1234.92 505.768 1235.16 507.227 1235.16 508.874C1235.16 510.662 1234.81 512.332 1234.1 513.885C1233.39 515.438 1232.36 516.803 1230.99 517.979C1229.68 519.109 1228.08 520.027 1226.19 520.732C1224.31 521.391 1222.19 521.721 1219.84 521.721C1216.69 521.721 1213.75 521.109 1211.02 519.885C1208.34 518.709 1206.01 517.085 1204.03 515.015ZM1251.96 520.874V480.638H1238.34V475.838H1271.37V480.638H1257.75V520.874H1251.96ZM1282.31 502.521H1295.86L1293.75 495.674C1292.9 493.132 1292.12 490.615 1291.42 488.121C1290.66 485.627 1289.94 483.085 1289.23 480.497H1288.95C1288.24 483.085 1287.54 485.627 1286.83 488.121C1286.08 490.615 1285.28 493.132 1284.43 495.674L1282.31 502.521ZM1301.58 520.874L1297.28 507.109H1280.9L1276.59 520.874H1270.74L1285.98 475.838H1292.41L1307.65 520.874H1301.58ZM1320.64 520.874V480.638H1307.09V475.838H1340.05V480.638H1326.43V520.874H1320.64ZM1347.96 502.238V475.838H1353.61V502.379C1353.61 505.109 1353.89 507.391 1354.45 509.227C1355.02 511.015 1355.77 512.474 1356.71 513.603C1357.65 514.685 1358.76 515.462 1360.03 515.932C1361.3 516.45 1362.66 516.709 1364.12 516.709C1365.63 516.709 1367.04 516.45 1368.36 515.932C1369.63 515.462 1370.74 514.685 1371.68 513.603C1372.66 512.474 1373.42 511.015 1373.94 509.227C1374.5 507.391 1374.78 505.109 1374.78 502.379V475.838H1380.29V502.238C1380.29 505.862 1379.86 508.921 1379.02 511.415C1378.22 513.862 1377.09 515.862 1375.63 517.415C1374.22 518.921 1372.52 520.027 1370.55 520.732C1368.57 521.391 1366.43 521.721 1364.12 521.721C1361.86 521.721 1359.72 521.391 1357.7 520.732C1355.72 520.027 1354.01 518.921 1352.55 517.415C1351.14 515.862 1350.01 513.862 1349.16 511.415C1348.36 508.921 1347.96 505.862 1347.96 502.238ZM1388.48 515.015L1391.86 511.062C1393.46 512.756 1395.37 514.121 1397.58 515.156C1399.75 516.191 1402.01 516.709 1404.36 516.709C1407.32 516.709 1409.63 516.027 1411.28 514.662C1412.92 513.297 1413.75 511.532 1413.75 509.368C1413.75 508.191 1413.56 507.203 1413.18 506.403C1412.76 505.603 1412.22 504.921 1411.56 504.356C1410.9 503.791 1410.12 503.274 1409.23 502.803C1408.29 502.332 1407.3 501.862 1406.26 501.391L1399.77 498.568C1398.74 498.097 1397.68 497.532 1396.59 496.874C1395.46 496.262 1394.48 495.485 1393.63 494.544C1392.74 493.65 1392.03 492.568 1391.51 491.297C1390.95 490.027 1390.66 488.568 1390.66 486.921C1390.66 485.227 1391.02 483.65 1391.72 482.191C1392.43 480.732 1393.42 479.462 1394.69 478.379C1395.96 477.297 1397.44 476.474 1399.14 475.909C1400.88 475.297 1402.76 474.991 1404.78 474.991C1407.51 474.991 1410.01 475.509 1412.26 476.544C1414.57 477.579 1416.52 478.921 1418.12 480.568L1415.02 484.238C1413.65 482.921 1412.15 481.885 1410.5 481.132C1408.81 480.379 1406.9 480.003 1404.78 480.003C1402.29 480.003 1400.26 480.591 1398.71 481.768C1397.21 482.944 1396.45 484.544 1396.45 486.568C1396.45 487.697 1396.66 488.638 1397.09 489.391C1397.51 490.144 1398.1 490.803 1398.85 491.368C1399.56 491.932 1400.36 492.427 1401.25 492.85C1402.1 493.321 1402.99 493.721 1403.94 494.05L1410.29 496.803C1411.56 497.368 1412.78 498.003 1413.96 498.709C1415.09 499.415 1416.08 500.238 1416.92 501.179C1417.72 502.121 1418.36 503.227 1418.83 504.497C1419.35 505.768 1419.61 507.227 1419.61 508.874C1419.61 510.662 1419.23 512.332 1418.48 513.885C1417.77 515.438 1416.76 516.803 1415.44 517.979C1414.12 519.109 1412.52 520.027 1410.64 520.732C1408.76 521.391 1406.64 521.721 1404.29 521.721C1401.09 521.721 1398.15 521.109 1395.46 519.885C1392.78 518.709 1390.45 517.085 1388.48 515.015ZM1439.72 498.356C1439.72 494.732 1440.22 491.485 1441.21 488.615C1442.24 485.697 1443.63 483.25 1445.37 481.274C1447.16 479.25 1449.28 477.697 1451.72 476.615C1454.22 475.532 1456.9 474.991 1459.77 474.991C1462.5 474.991 1464.9 475.556 1466.97 476.685C1469.04 477.815 1470.74 479.109 1472.05 480.568L1468.81 484.168C1467.63 482.897 1466.31 481.885 1464.85 481.132C1463.44 480.379 1461.77 480.003 1459.84 480.003C1457.68 480.003 1455.72 480.427 1453.98 481.274C1452.24 482.121 1450.76 483.344 1449.54 484.944C1448.31 486.497 1447.35 488.403 1446.64 490.662C1445.94 492.921 1445.58 495.438 1445.58 498.215C1445.58 501.038 1445.94 503.579 1446.64 505.838C1447.3 508.144 1448.22 510.097 1449.39 511.697C1450.57 513.297 1452.03 514.521 1453.77 515.368C1455.46 516.262 1457.39 516.709 1459.56 516.709C1461.77 516.709 1463.68 516.262 1465.28 515.368C1466.92 514.521 1468.48 513.297 1469.94 511.697L1473.18 515.156C1471.39 517.227 1469.37 518.827 1467.11 519.956C1464.85 521.132 1462.29 521.721 1459.42 521.721C1456.59 521.721 1453.98 521.179 1451.58 520.097C1449.14 519.062 1447.04 517.556 1445.3 515.579C1443.56 513.556 1442.19 511.085 1441.21 508.168C1440.22 505.297 1439.72 502.027 1439.72 498.356ZM1496.19 521.721C1493.32 521.721 1490.71 521.156 1488.36 520.027C1486.01 518.944 1483.98 517.391 1482.29 515.368C1480.59 513.297 1479.28 510.827 1478.34 507.956C1477.39 505.038 1476.92 501.768 1476.92 498.144C1476.92 494.521 1477.39 491.274 1478.34 488.403C1479.28 485.532 1480.59 483.109 1482.29 481.132C1483.98 479.156 1486.01 477.627 1488.36 476.544C1490.71 475.509 1493.32 474.991 1496.19 474.991C1499.02 474.991 1501.61 475.532 1503.96 476.615C1506.31 477.697 1508.36 479.227 1510.1 481.203C1511.79 483.179 1513.11 485.603 1514.05 488.474C1514.99 491.344 1515.46 494.568 1515.46 498.144C1515.46 501.768 1514.99 505.038 1514.05 507.956C1513.11 510.827 1511.79 513.297 1510.1 515.368C1508.36 517.391 1506.31 518.944 1503.96 520.027C1501.61 521.156 1499.02 521.721 1496.19 521.721ZM1496.19 516.709C1498.17 516.709 1499.98 516.262 1501.63 515.368C1503.28 514.521 1504.66 513.274 1505.79 511.627C1506.97 510.027 1507.89 508.074 1508.55 505.768C1509.16 503.509 1509.46 500.968 1509.46 498.144C1509.46 495.368 1509.16 492.85 1508.55 490.591C1507.89 488.332 1506.97 486.427 1505.79 484.874C1504.66 483.321 1503.28 482.121 1501.63 481.274C1499.98 480.427 1498.17 480.003 1496.19 480.003C1494.17 480.003 1492.34 480.427 1490.69 481.274C1489.09 482.121 1487.7 483.321 1486.52 484.874C1485.35 486.427 1484.43 488.332 1483.77 490.591C1483.16 492.85 1482.85 495.368 1482.85 498.144C1482.85 500.968 1483.16 503.509 1483.77 505.768C1484.43 508.074 1485.35 510.027 1486.52 511.627C1487.7 513.274 1489.09 514.521 1490.69 515.368C1492.34 516.262 1494.17 516.709 1496.19 516.709ZM1525.14 520.874V475.838H1536.43C1543.39 475.838 1548.69 477.744 1552.31 481.556C1555.94 485.415 1557.75 490.944 1557.75 498.144C1557.75 501.721 1557.28 504.921 1556.34 507.744C1555.44 510.521 1554.1 512.897 1552.31 514.874C1550.52 516.803 1548.31 518.285 1545.68 519.321C1543.09 520.356 1540.1 520.874 1536.71 520.874H1525.14ZM1530.85 516.215H1536.01C1541.28 516.215 1545.23 514.638 1547.86 511.485C1550.5 508.332 1551.82 503.885 1551.82 498.144C1551.82 492.403 1550.5 488.027 1547.86 485.015C1545.23 482.003 1541.28 480.497 1536.01 480.497H1530.85V516.215ZM1567.42 520.874V475.838H1593.39V480.638H1573.14V494.756H1590.22V499.627H1573.14V516.003H1594.03V520.874H1567.42Z" fill="#2F2A76"/>
<defs>
<clipPath id="clip0_1_72">
<rect width="429.333" height="432.355" fill="white" transform="translate(849.839 0.279541)"/>
</clipPath>
<clipPath id="clip1_1_72">
<rect width="430" height="433" fill="white" transform="translate(850)"/>
</clipPath>
</defs>
</svg>
